<?xml version="1.0" encoding="UTF-8" standalone="no"?>
<!DOCTYPE svg PUBLIC "-//W3C//DTD SVG 1.1//EN"
 "http://www.w3.org/Graphics/SVG/1.1/DTD/svg11.dtd">
<!-- Generated by graphviz version 5.0.0 (20220707.1540)
 -->
<!-- Title: dependencies Pages: 1 -->
<svg width="476pt" height="174pt"
 viewBox="0.00 0.00 476.00 173.80" xmlns="http://www.w3.org/2000/svg" xmlns:xlink="http://www.w3.org/1999/xlink">
<g id="graph0" class="graph" transform="scale(1 1) rotate(0) translate(4 169.8)">
<title>dependencies</title>
<polygon fill="white" stroke="transparent" points="-4,4 -4,-169.8 472,-169.8 472,4 -4,4"/>
<text text-anchor="middle" x="234" y="-8.2" font-family="sans-serif" font-size="14.00">dependencies</text>
<g id="clust1" class="cluster">
<title>cluster_SongsModule</title>
<polygon fill="none" stroke="black" stroke-dasharray="1,5" points="8,-32.8 8,-157.8 460,-157.8 460,-32.8 8,-32.8"/>
</g>
<g id="clust5" class="cluster">
<title>cluster_SongsModule_imports</title>
<polygon fill="none" stroke="black" points="314,-40.8 314,-92.8 452,-92.8 452,-40.8 314,-40.8"/>
</g>
<g id="clust2" class="cluster">
<title>cluster_SongsModule_declarations</title>
<polygon fill="none" stroke="black" points="16,-40.8 16,-92.8 306,-92.8 306,-40.8 16,-40.8"/>
</g>
<!-- SongFormComponent -->
<g id="node1" class="node">
<title>SongFormComponent</title>
<polygon fill="#ffffb3" stroke="black" points="298.46,-84.8 157.54,-84.8 157.54,-48.8 298.46,-48.8 298.46,-84.8"/>
<text text-anchor="middle" x="228" y="-62.6" font-family="Times,serif" font-size="14.00">SongFormComponent</text>
</g>
<!-- SongsModule -->
<g id="node3" class="node">
<title>SongsModule</title>
<polygon fill="#8dd3c7" stroke="black" points="274.79,-149.8 271.79,-153.8 250.79,-153.8 247.79,-149.8 181.21,-149.8 181.21,-113.8 274.79,-113.8 274.79,-149.8"/>
<text text-anchor="middle" x="228" y="-127.6" font-family="Times,serif" font-size="14.00">SongsModule</text>
</g>
<!-- SongFormComponent&#45;&gt;SongsModule -->
<g id="edge1" class="edge">
<title>SongFormComponent&#45;&gt;SongsModule</title>
<path fill="none" stroke="black" d="M228,-84.91C228,-84.91 228,-103.79 228,-103.79"/>
<polygon fill="black" stroke="black" points="224.5,-103.79 228,-113.79 231.5,-103.79 224.5,-103.79"/>
</g>
<!-- SongsComponent -->
<g id="node2" class="node">
<title>SongsComponent</title>
<polygon fill="#ffffb3" stroke="black" points="139.57,-84.8 24.43,-84.8 24.43,-48.8 139.57,-48.8 139.57,-84.8"/>
<text text-anchor="middle" x="82" y="-62.6" font-family="Times,serif" font-size="14.00">SongsComponent</text>
</g>
<!-- SongsComponent&#45;&gt;SongsModule -->
<g id="edge2" class="edge">
<title>SongsComponent&#45;&gt;SongsModule</title>
<path fill="none" stroke="black" d="M82,-84.91C82,-104.14 82,-131.8 82,-131.8 82,-131.8 171,-131.8 171,-131.8"/>
<polygon fill="black" stroke="black" points="171,-135.3 181,-131.8 171,-128.3 171,-135.3"/>
</g>
<!-- MaterialUIModule -->
<g id="node4" class="node">
<title>MaterialUIModule</title>
<polygon fill="#8dd3c7" stroke="black" points="443.75,-84.8 440.75,-88.8 419.75,-88.8 416.75,-84.8 322.25,-84.8 322.25,-48.8 443.75,-48.8 443.75,-84.8"/>
<text text-anchor="middle" x="383" y="-62.6" font-family="Times,serif" font-size="14.00">MaterialUIModule</text>
</g>
<!-- MaterialUIModule&#45;&gt;SongsModule -->
<g id="edge3" class="edge">
<title>MaterialUIModule&#45;&gt;SongsModule</title>
<path fill="none" stroke="black" d="M383,-84.91C383,-104.14 383,-131.8 383,-131.8 383,-131.8 284.93,-131.8 284.93,-131.8"/>
<polygon fill="black" stroke="black" points="284.93,-128.3 274.93,-131.8 284.93,-135.3 284.93,-128.3"/>
</g>
</g>
</svg>
