<?xml version="1.0" encoding="UTF-8" standalone="no"?>
<!DOCTYPE svg PUBLIC "-//W3C//DTD SVG 1.1//EN"
 "http://www.w3.org/Graphics/SVG/1.1/DTD/svg11.dtd">
<!-- Generated by graphviz version 5.0.0 (20220707.1540)
 -->
<!-- Title: dependencies Pages: 1 -->
<svg width="587pt" height="247pt"
 viewBox="0.00 0.00 587.00 246.80" xmlns="http://www.w3.org/2000/svg" xmlns:xlink="http://www.w3.org/1999/xlink">
<g id="graph0" class="graph" transform="scale(1 1) rotate(0) translate(4 242.8)">
<title>dependencies</title>
<polygon fill="white" stroke="transparent" points="-4,4 -4,-242.8 583,-242.8 583,4 -4,4"/>
<text text-anchor="middle" x="289.5" y="-8.2" font-family="sans-serif" font-size="14.00">dependencies</text>
<g id="clust1" class="cluster">
<title>cluster_AppModule</title>
<polygon fill="none" stroke="black" stroke-dasharray="1,5" points="8,-32.8 8,-230.8 571,-230.8 571,-32.8 8,-32.8"/>
</g>
<g id="clust2" class="cluster">
<title>cluster_AppModule_declarations</title>
<polygon fill="none" stroke="black" points="308,-40.8 308,-92.8 563,-92.8 563,-40.8 308,-40.8"/>
</g>
<g id="clust7" class="cluster">
<title>cluster_AppModule_bootstrap</title>
<polygon fill="none" stroke="black" points="239,-170.8 239,-222.8 363,-222.8 363,-170.8 239,-170.8"/>
</g>
<g id="clust5" class="cluster">
<title>cluster_AppModule_imports</title>
<polygon fill="none" stroke="black" points="16,-40.8 16,-92.8 300,-92.8 300,-40.8 16,-40.8"/>
</g>
<!-- AppComponent -->
<g id="node1" class="node">
<title>AppComponent</title>
<polygon fill="#ffffb3" stroke="black" points="554.94,-84.8 449.06,-84.8 449.06,-48.8 554.94,-48.8 554.94,-84.8"/>
<text text-anchor="middle" x="502" y="-62.6" font-family="Times,serif" font-size="14.00">AppComponent</text>
</g>
<!-- AppModule -->
<g id="node3" class="node">
<title>AppModule</title>
<polygon fill="#8dd3c7" stroke="black" points="342.66,-149.8 339.66,-153.8 318.66,-153.8 315.66,-149.8 259.34,-149.8 259.34,-113.8 342.66,-113.8 342.66,-149.8"/>
<text text-anchor="middle" x="301" y="-127.6" font-family="Times,serif" font-size="14.00">AppModule</text>
</g>
<!-- AppComponent&#45;&gt;AppModule -->
<g id="edge1" class="edge">
<title>AppComponent&#45;&gt;AppModule</title>
<path fill="none" stroke="black" d="M502,-84.91C502,-104.14 502,-131.8 502,-131.8 502,-131.8 353.14,-131.8 353.14,-131.8"/>
<polygon fill="black" stroke="black" points="353.14,-128.3 343.14,-131.8 353.14,-135.3 353.14,-128.3"/>
</g>
<!-- HomeComponent -->
<g id="node2" class="node">
<title>HomeComponent</title>
<polygon fill="#ffffb3" stroke="black" points="431.55,-84.8 316.45,-84.8 316.45,-48.8 431.55,-48.8 431.55,-84.8"/>
<text text-anchor="middle" x="374" y="-62.6" font-family="Times,serif" font-size="14.00">HomeComponent</text>
</g>
<!-- HomeComponent&#45;&gt;AppModule -->
<g id="edge2" class="edge">
<title>HomeComponent&#45;&gt;AppModule</title>
<path fill="none" stroke="black" d="M329.53,-84.91C329.53,-84.91 329.53,-103.79 329.53,-103.79"/>
<polygon fill="black" stroke="black" points="326.03,-103.79 329.53,-113.79 333.03,-103.79 326.03,-103.79"/>
</g>
<!-- AppComponent  -->
<g id="node6" class="node">
<title>AppComponent </title>
<polygon fill="#80b1d3" stroke="black" points="355.44,-214.8 246.56,-214.8 246.56,-178.8 355.44,-178.8 355.44,-214.8"/>
<text text-anchor="middle" x="301" y="-192.6" font-family="Times,serif" font-size="14.00">AppComponent </text>
</g>
<!-- AppModule&#45;&gt;AppComponent  -->
<g id="edge5" class="edge">
<title>AppModule&#45;&gt;AppComponent </title>
<path fill="none" stroke="black" stroke-dasharray="1,5" d="M301,-149.91C301,-149.91 301,-168.79 301,-168.79"/>
<polygon fill="black" stroke="black" points="297.5,-168.79 301,-178.79 304.5,-168.79 297.5,-168.79"/>
</g>
<!-- AppRoutingModule -->
<g id="node4" class="node">
<title>AppRoutingModule</title>
<polygon fill="#8dd3c7" stroke="black" points="292.28,-84.8 289.28,-88.8 268.28,-88.8 265.28,-84.8 163.72,-84.8 163.72,-48.8 292.28,-48.8 292.28,-84.8"/>
<text text-anchor="middle" x="228" y="-62.6" font-family="Times,serif" font-size="14.00">AppRoutingModule</text>
</g>
<!-- AppRoutingModule&#45;&gt;AppModule -->
<g id="edge3" class="edge">
<title>AppRoutingModule&#45;&gt;AppModule</title>
<path fill="none" stroke="black" d="M275.78,-84.91C275.78,-84.91 275.78,-103.79 275.78,-103.79"/>
<polygon fill="black" stroke="black" points="272.28,-103.79 275.78,-113.79 279.28,-103.79 272.28,-103.79"/>
</g>
<!-- MaterialUIModule -->
<g id="node5" class="node">
<title>MaterialUIModule</title>
<polygon fill="#8dd3c7" stroke="black" points="145.75,-84.8 142.75,-88.8 121.75,-88.8 118.75,-84.8 24.25,-84.8 24.25,-48.8 145.75,-48.8 145.75,-84.8"/>
<text text-anchor="middle" x="85" y="-62.6" font-family="Times,serif" font-size="14.00">MaterialUIModule</text>
</g>
<!-- MaterialUIModule&#45;&gt;AppModule -->
<g id="edge4" class="edge">
<title>MaterialUIModule&#45;&gt;AppModule</title>
<path fill="none" stroke="black" d="M85,-84.91C85,-104.14 85,-131.8 85,-131.8 85,-131.8 249.1,-131.8 249.1,-131.8"/>
<polygon fill="black" stroke="black" points="249.1,-135.3 259.1,-131.8 249.1,-128.3 249.1,-135.3"/>
</g>
</g>
</svg>
