<?xml version="1.0" encoding="UTF-8" standalone="no"?>
<!DOCTYPE svg PUBLIC "-//W3C//DTD SVG 1.1//EN"
 "http://www.w3.org/Graphics/SVG/1.1/DTD/svg11.dtd">
<!-- Generated by graphviz version 5.0.0 (20220707.1540)
 -->
<!-- Title: dependencies Pages: 1 -->
<svg width="901pt" height="247pt"
 viewBox="0.00 0.00 901.00 246.80" xmlns="http://www.w3.org/2000/svg" xmlns:xlink="http://www.w3.org/1999/xlink">
<g id="graph0" class="graph" transform="scale(1 1) rotate(0) translate(4 242.8)">
<title>dependencies</title>
<polygon fill="white" stroke="transparent" points="-4,4 -4,-242.8 897,-242.8 897,4 -4,4"/>
<text text-anchor="middle" x="446.5" y="-8.2" font-family="sans-serif" font-size="14.00">dependencies</text>
<g id="clust1" class="cluster">
<title>cluster_AppModule</title>
<polygon fill="none" stroke="black" stroke-dasharray="1,5" points="8,-32.8 8,-230.8 571,-230.8 571,-32.8 8,-32.8"/>
</g>
<g id="clust2" class="cluster">
<title>cluster_AppModule_declarations</title>
<polygon fill="none" stroke="black" points="16,-40.8 16,-92.8 271,-92.8 271,-40.8 16,-40.8"/>
</g>
<g id="clust5" class="cluster">
<title>cluster_AppModule_imports</title>
<polygon fill="none" stroke="black" points="279,-40.8 279,-92.8 563,-92.8 563,-40.8 279,-40.8"/>
</g>
<g id="clust7" class="cluster">
<title>cluster_AppModule_bootstrap</title>
<polygon fill="none" stroke="black" points="218,-170.8 218,-222.8 342,-222.8 342,-170.8 218,-170.8"/>
</g>
<g id="clust21" class="cluster">
<title>cluster_SongsModule</title>
<polygon fill="none" stroke="black" stroke-dasharray="1,5" points="579,-32.8 579,-157.8 885,-157.8 885,-32.8 579,-32.8"/>
</g>
<g id="clust22" class="cluster">
<title>cluster_SongsModule_declarations</title>
<polygon fill="none" stroke="black" points="587,-40.8 587,-92.8 877,-92.8 877,-40.8 587,-40.8"/>
</g>
<!-- AppComponent -->
<g id="node1" class="node">
<title>AppComponent</title>
<polygon fill="#ffffb3" stroke="black" points="262.94,-84.8 157.06,-84.8 157.06,-48.8 262.94,-48.8 262.94,-84.8"/>
<text text-anchor="middle" x="210" y="-62.6" font-family="Times,serif" font-size="14.00">AppComponent</text>
</g>
<!-- AppModule -->
<g id="node3" class="node">
<title>AppModule</title>
<polygon fill="#8dd3c7" stroke="black" points="321.66,-149.8 318.66,-153.8 297.66,-153.8 294.66,-149.8 238.34,-149.8 238.34,-113.8 321.66,-113.8 321.66,-149.8"/>
<text text-anchor="middle" x="280" y="-127.6" font-family="Times,serif" font-size="14.00">AppModule</text>
</g>
<!-- AppComponent&#45;&gt;AppModule -->
<g id="edge1" class="edge">
<title>AppComponent&#45;&gt;AppModule</title>
<path fill="none" stroke="black" d="M250.44,-84.91C250.44,-84.91 250.44,-103.79 250.44,-103.79"/>
<polygon fill="black" stroke="black" points="246.94,-103.79 250.44,-113.79 253.94,-103.79 246.94,-103.79"/>
</g>
<!-- HomeComponent -->
<g id="node2" class="node">
<title>HomeComponent</title>
<polygon fill="#ffffb3" stroke="black" points="139.55,-84.8 24.45,-84.8 24.45,-48.8 139.55,-48.8 139.55,-84.8"/>
<text text-anchor="middle" x="82" y="-62.6" font-family="Times,serif" font-size="14.00">HomeComponent</text>
</g>
<!-- HomeComponent&#45;&gt;AppModule -->
<g id="edge2" class="edge">
<title>HomeComponent&#45;&gt;AppModule</title>
<path fill="none" stroke="black" d="M82,-84.91C82,-104.14 82,-131.8 82,-131.8 82,-131.8 228.01,-131.8 228.01,-131.8"/>
<polygon fill="black" stroke="black" points="228.01,-135.3 238.01,-131.8 228.01,-128.3 228.01,-135.3"/>
</g>
<!-- AppComponent  -->
<g id="node6" class="node">
<title>AppComponent </title>
<polygon fill="#80b1d3" stroke="black" points="334.44,-214.8 225.56,-214.8 225.56,-178.8 334.44,-178.8 334.44,-214.8"/>
<text text-anchor="middle" x="280" y="-192.6" font-family="Times,serif" font-size="14.00">AppComponent </text>
</g>
<!-- AppModule&#45;&gt;AppComponent  -->
<g id="edge5" class="edge">
<title>AppModule&#45;&gt;AppComponent </title>
<path fill="none" stroke="black" stroke-dasharray="1,5" d="M280,-149.91C280,-149.91 280,-168.79 280,-168.79"/>
<polygon fill="black" stroke="black" points="276.5,-168.79 280,-178.79 283.5,-168.79 276.5,-168.79"/>
</g>
<!-- AppRoutingModule -->
<g id="node4" class="node">
<title>AppRoutingModule</title>
<polygon fill="#8dd3c7" stroke="black" points="415.28,-84.8 412.28,-88.8 391.28,-88.8 388.28,-84.8 286.72,-84.8 286.72,-48.8 415.28,-48.8 415.28,-84.8"/>
<text text-anchor="middle" x="351" y="-62.6" font-family="Times,serif" font-size="14.00">AppRoutingModule</text>
</g>
<!-- AppRoutingModule&#45;&gt;AppModule -->
<g id="edge3" class="edge">
<title>AppRoutingModule&#45;&gt;AppModule</title>
<path fill="none" stroke="black" d="M304.22,-84.91C304.22,-84.91 304.22,-103.79 304.22,-103.79"/>
<polygon fill="black" stroke="black" points="300.72,-103.79 304.22,-113.79 307.72,-103.79 300.72,-103.79"/>
</g>
<!-- MaterialUIModule -->
<g id="node5" class="node">
<title>MaterialUIModule</title>
<polygon fill="#8dd3c7" stroke="black" points="554.75,-84.8 551.75,-88.8 530.75,-88.8 527.75,-84.8 433.25,-84.8 433.25,-48.8 554.75,-48.8 554.75,-84.8"/>
<text text-anchor="middle" x="494" y="-62.6" font-family="Times,serif" font-size="14.00">MaterialUIModule</text>
</g>
<!-- MaterialUIModule&#45;&gt;AppModule -->
<g id="edge4" class="edge">
<title>MaterialUIModule&#45;&gt;AppModule</title>
<path fill="none" stroke="black" d="M473.71,-84.82C473.71,-102.17 473.71,-125.8 473.71,-125.8 473.71,-125.8 332.03,-125.8 332.03,-125.8"/>
<polygon fill="black" stroke="black" points="332.03,-122.3 322.03,-125.8 332.03,-129.3 332.03,-122.3"/>
</g>
<!-- SongsModule -->
<g id="node9" class="node">
<title>SongsModule</title>
<polygon fill="#8dd3c7" stroke="black" points="699.79,-149.8 696.79,-153.8 675.79,-153.8 672.79,-149.8 606.21,-149.8 606.21,-113.8 699.79,-113.8 699.79,-149.8"/>
<text text-anchor="middle" x="653" y="-127.6" font-family="Times,serif" font-size="14.00">SongsModule</text>
</g>
<!-- MaterialUIModule&#45;&gt;SongsModule -->
<g id="edge8" class="edge">
<title>MaterialUIModule&#45;&gt;SongsModule</title>
<path fill="none" stroke="black" d="M514.29,-85.08C514.29,-106.12 514.29,-137.8 514.29,-137.8 514.29,-137.8 596.04,-137.8 596.04,-137.8"/>
<polygon fill="black" stroke="black" points="596.04,-141.3 606.04,-137.8 596.04,-134.3 596.04,-141.3"/>
</g>
<!-- SongFormComponent -->
<g id="node7" class="node">
<title>SongFormComponent</title>
<polygon fill="#ffffb3" stroke="black" points="869.46,-84.8 728.54,-84.8 728.54,-48.8 869.46,-48.8 869.46,-84.8"/>
<text text-anchor="middle" x="799" y="-62.6" font-family="Times,serif" font-size="14.00">SongFormComponent</text>
</g>
<!-- SongFormComponent&#45;&gt;SongsModule -->
<g id="edge6" class="edge">
<title>SongFormComponent&#45;&gt;SongsModule</title>
<path fill="none" stroke="black" d="M799,-84.91C799,-104.14 799,-131.8 799,-131.8 799,-131.8 710,-131.8 710,-131.8"/>
<polygon fill="black" stroke="black" points="710,-128.3 700,-131.8 710,-135.3 710,-128.3"/>
</g>
<!-- SongsComponent -->
<g id="node8" class="node">
<title>SongsComponent</title>
<polygon fill="#ffffb3" stroke="black" points="710.57,-84.8 595.43,-84.8 595.43,-48.8 710.57,-48.8 710.57,-84.8"/>
<text text-anchor="middle" x="653" y="-62.6" font-family="Times,serif" font-size="14.00">SongsComponent</text>
</g>
<!-- SongsComponent&#45;&gt;SongsModule -->
<g id="edge7" class="edge">
<title>SongsComponent&#45;&gt;SongsModule</title>
<path fill="none" stroke="black" d="M653,-84.91C653,-84.91 653,-103.79 653,-103.79"/>
<polygon fill="black" stroke="black" points="649.5,-103.79 653,-113.79 656.5,-103.79 649.5,-103.79"/>
</g>
</g>
</svg>
